<?xml version="1.0" encoding="UTF-8" standalone="no"?>
<!-- Uploaded to: SVG Repo, www.svgrepo.com, Generator: SVG Repo Mixer Tools -->

<svg
   fill="#000000"
   height="941.70752"
   width="941.70752"
   version="1.1"
   id="Layer_1"
   viewBox="0 0 602.69281 602.69281"
   xml:space="preserve"
   sodipodi:docname="favicon-snail.svg"
   inkscape:version="1.1.2 (0a00cf5339, 2022-02-04)"
   xmlns:inkscape="http://www.inkscape.org/namespaces/inkscape"
   xmlns:sodipodi="http://sodipodi.sourceforge.net/DTD/sodipodi-0.dtd"
   xmlns="http://www.w3.org/2000/svg"
   xmlns:svg="http://www.w3.org/2000/svg"><defs
   id="defs11" /><sodipodi:namedview
   id="namedview9"
   pagecolor="#505050"
   bordercolor="#ffffff"
   borderopacity="1"
   inkscape:pageshadow="0"
   inkscape:pageopacity="0"
   inkscape:pagecheckerboard="1"
   showgrid="false"
   inkscape:zoom="0.45254834"
   inkscape:cx="-554.63688"
   inkscape:cy="1139.1048"
   inkscape:window-width="2554"
   inkscape:window-height="1475"
   inkscape:window-x="-6"
   inkscape:window-y="235"
   inkscape:window-maximized="0"
   inkscape:current-layer="Layer_1"
   fit-margin-top="0"
   fit-margin-left="0"
   fit-margin-right="0"
   fit-margin-bottom="0" />
<path
   style="fill:#336699;fill-opacity:1;stroke:none;stroke-width:4.7811;stroke-linejoin:round"
   id="path1286"
   sodipodi:type="arc"
   sodipodi:cx="301.34641"
   sodipodi:cy="301.34641"
   sodipodi:rx="301.34641"
   sodipodi:ry="301.34641"
   sodipodi:start="3.6507925"
   sodipodi:end="3.6494294"
   sodipodi:arc-type="arc"
   d="M 38.230353,154.44644 A 301.34641,301.34641 0 0 1 448.1567,38.18031 301.34641,301.34641 0 0 1 564.56251,448.06701 301.34641,301.34641 0 0 1 154.7155,564.6125 301.34641,301.34641 0 0 1 38.030364,154.80522"
   sodipodi:open="true" />
<path
   id="path4747"
   style="fill:#ff9300;fill-opacity:1;stroke-width:1.19341"
   d="M 37.012166,421.0736 V 349.00369 H 487.54756 v 72.06991 z" /><path
   id="path4753"
   style="fill:none;stroke:#ff9300;stroke-width:31.99999987;stroke-linejoin:round;stroke-opacity:0.9993;stroke-miterlimit:4;stroke-dasharray:none"
   d="m 304.86028,77.60697 c -42.44635,5.265838 -55.50039,41.75944 -52.21364,68.25288 3.74662,30.20039 32.6166,59.64103 79.33949,51.04268 -12.84488,29.64917 7.00957,72.78699 45.60685,67.99867 l 64.35644,-7.98398 c 34.34555,-4.26086 54.43383,11.77841 57.93656,40.01282 l 4.06985,32.80591" /><path
   id="path4755"
   style="fill:none;stroke:#ff9300;stroke-width:31.99999987;stroke-linejoin:round;stroke-opacity:0.9993;stroke-miterlimit:4;stroke-dasharray:none"
   d="m 364.86797,75.752928 c 43.46392,0 74.78692,39.175712 74.78692,76.171362 0,14.29702 -5.37033,31.62531 -16.25421,46.63838 h 38.33226 c 55.74409,0 88.99244,46.44744 88.99244,92.99035 v 44.39478"
   sodipodi:nodetypes="cscssc" /><path
   id="path4757"
   style="fill:none;stroke:#ff9300;stroke-width:24.1486;stroke-linejoin:round;stroke-opacity:0.9993"
   d="m 513.10916,347.86995 v 72.91723" /><path
   id="path4759"
   style="fill:none;stroke:#ff9300;stroke-width:24.1486;stroke-linejoin:round;stroke-opacity:0.9993"
   d="m 550.85665,347.86995 v 72.91723" /></svg>
